<svg width="20" height="20" viewBox="0 0 20 20" fill="none" xmlns="http://www.w3.org/2000/svg">
<path d="M2.35903 6.95622L3.02572 8.27733C3.45015 9.11843 3.66235 9.5389 3.66235 9.99998C3.66235 10.4611 3.45015 10.8815 3.02573 11.7226L2.35903 13.0437C0.460639 16.8057 -0.488558 18.6869 0.251636 19.6196C0.991831 20.5524 2.7446 19.684 6.25014 17.9473L15.8711 13.1809C18.6238 11.8173 20 11.1353 20 9.99998C20 8.86463 18.6238 8.18272 15.8711 6.81907L6.25015 2.05266C2.74461 0.315959 0.991831 -0.552399 0.251636 0.3804C-0.488558 1.3132 0.460639 3.19419 2.35903 6.95622Z" fill="#D9D9D9"/>
</svg>
